<svg width="32" height="32" viewBox="0 0 32 32" fill="none" xmlns="http://www.w3.org/2000/svg">
<path d="M10.202 2.098C8.71199 2.168 7.69499 2.406 6.80599 2.755C5.88599 3.114 5.10599 3.595 4.32899 4.374C3.55299 5.153 3.07499 5.934 2.71899 6.855C2.37399 7.746 2.14099 8.764 2.07499 10.255C2.00899 11.745 1.99499 12.225 2.00199 16.026C2.00899 19.827 2.02599 20.304 2.09799 21.798C2.16899 23.287 2.40599 24.304 2.75499 25.194C3.11399 26.114 3.59499 26.894 4.37399 27.671C5.15299 28.447 5.93299 28.924 6.85699 29.281C7.74699 29.625 8.76599 29.86 10.256 29.925C11.746 29.99 12.226 30.005 16.027 29.998C19.828 29.991 20.306 29.974 21.8 29.903C23.294 29.832 24.305 29.594 25.195 29.246C26.115 28.886 26.896 28.406 27.672 27.626C28.448 26.846 28.926 26.065 29.281 25.143C29.626 24.253 29.86 23.234 29.925 21.745C29.99 20.251 30.006 19.774 29.998 15.972C29.99 12.17 29.974 11.694 29.903 10.201C29.832 8.708 29.595 7.694 29.246 6.804C28.886 5.884 28.406 5.104 27.627 4.327C26.848 3.55 26.066 3.073 25.144 2.718C24.253 2.373 23.235 2.138 21.745 2.074C20.255 2.01 19.775 1.993 15.973 2C12.171 2.007 11.695 2.024 10.202 2.096M10.366 27.405C9.00099 27.346 8.25999 27.119 7.76599 26.929C7.11199 26.677 6.64599 26.372 6.15399 25.885C5.66199 25.398 5.35899 24.93 5.10399 24.277C4.91199 23.783 4.68099 23.043 4.61699 21.678C4.54799 20.203 4.53299 19.76 4.52499 16.022C4.51699 12.284 4.53099 11.842 4.59599 10.366C4.65399 9.002 4.88199 8.26 5.07199 7.766C5.32399 7.111 5.62799 6.646 6.11599 6.154C6.60399 5.662 7.07099 5.359 7.72399 5.104C8.21699 4.911 8.95799 4.682 10.322 4.617C11.798 4.547 12.241 4.533 15.978 4.525C19.715 4.517 20.159 4.531 21.636 4.596C23 4.655 23.742 4.881 24.235 5.072C24.889 5.324 25.355 5.627 25.847 6.116C26.339 6.605 26.642 7.07 26.898 7.725C27.091 8.217 27.32 8.957 27.384 10.322C27.454 11.798 27.47 12.241 27.477 15.978C27.484 19.715 27.471 20.159 27.406 21.634C27.346 22.999 27.12 23.74 26.93 24.235C26.678 24.889 26.374 25.355 25.885 25.847C25.396 26.339 24.93 26.642 24.277 26.897C23.784 27.089 23.043 27.319 21.68 27.384C20.204 27.453 19.761 27.468 16.023 27.476C12.285 27.484 11.842 27.469 10.366 27.405ZM21.779 8.517C21.781 9.445 22.534 10.196 23.462 10.194C24.39 10.192 25.141 9.439 25.139 8.511C25.137 7.583 24.384 6.832 23.456 6.834C22.528 6.836 21.778 7.589 21.779 8.517ZM8.81199 16.013C8.81999 19.983 12.044 23.195 16.014 23.187C19.984 23.179 23.197 19.955 23.19 15.985C23.182 12.015 19.957 8.802 15.987 8.81C12.017 8.818 8.80399 12.043 8.81199 16.013ZM11.335 16.008C11.33 13.431 13.415 11.337 15.993 11.332C18.57 11.327 20.664 13.412 20.669 15.99C20.674 18.567 18.589 20.661 16.011 20.666C13.434 20.671 11.34 18.587 11.335 16.01" fill="white"/>
</svg>
