<svg width="596" height="168" viewBox="0 0 596 168" fill="none" xmlns="http://www.w3.org/2000/svg">
<path d="M38.64 103.5L38.18 66.01L37.49 49.45H36.11L35.42 66.01L34.96 103.5H38.64ZM59.57 3.45L73.6 164.45H39.1L38.87 131.1H34.73L34.5 164.45H0L14.03 3.45H59.57ZM131.402 3.45V31.05H112.772V73.83H127.722V101.43H112.772V164.45H78.2719V3.45H131.402ZM137.173 3.45H173.973C195.593 3.45 210.773 17.25 210.773 42.78V60.72C210.773 74.52 204.333 84.18 193.293 87.86V88.78C204.563 92.23 210.773 102.35 210.773 116.15V142.14C210.773 151.34 211.233 156.86 212.613 163.53V164.45H178.113C176.733 156.86 176.273 151.34 176.273 142.14V106.49C176.273 103.5 175.583 102.35 173.973 102.35H171.673V164.45H137.173V3.45ZM171.673 31.05V74.75H173.973C175.583 74.75 176.273 73.6 176.273 70.38V35.19C176.273 32.2 175.583 31.05 173.973 31.05H171.673ZM291.237 36.8V130.87C291.237 155.02 276.977 167.9 254.437 167.9C231.897 167.9 217.637 155.02 217.637 130.87V36.8C217.637 12.88 231.897 4.52995e-06 254.667 4.52995e-06C277.207 4.52995e-06 291.237 12.65 291.237 36.8ZM256.737 135.93V31.74C256.737 28.75 256.047 27.6 254.437 27.6C252.827 27.6 252.137 28.75 252.137 31.74V135.93C252.137 138.92 252.827 140.3 254.437 140.3C256.047 140.3 256.737 139.15 256.737 135.93ZM371.702 40.25V127.42C371.702 152.72 356.522 164.45 334.902 164.45H298.102V3.45H334.902C356.522 3.45 371.702 14.95 371.702 40.25ZM337.202 132.48V35.19C337.202 32.2 336.512 31.05 334.902 31.05H332.602V136.85H334.902C336.512 136.85 337.202 135.7 337.202 132.48ZM446.496 3.45L426.946 118.45V164.45H392.446V118.45L372.896 3.45H407.396L408.546 69.92L409.006 86.48H410.386L411.076 69.92L411.996 3.45H446.496ZM517.868 3.45V31.05H501.768V164.45H467.268V31.05H451.168V3.45H517.868ZM595.97 3.45L576.42 118.45V164.45H541.92V118.45L522.37 3.45H556.87L558.02 69.92L558.48 86.48H559.86L560.55 69.92L561.47 3.45H595.97Z" fill="white"/>
</svg>
