<svg width="68" height="59" viewBox="0 0 68 59" fill="none" xmlns="http://www.w3.org/2000/svg">
<path d="M25.6 14V18.72C25.6 23.52 23.36 26.88 19.52 28.16V28.48C23.44 29.68 25.6 33.2 25.6 38V44.32C25.6 53.12 20.32 57.2 12.8 57.2H1.22637e-05V1.20001H12.8C20.32 1.20001 25.6 5.20001 25.6 14ZM13.6 22.08V12.24C13.6 11.2 13.36 10.8 12.8 10.8H12V23.6H12.8C13.36 23.6 13.6 23.2 13.6 22.08ZM13.6 46.08V34.64C13.6 33.6 13.36 33.2 12.8 33.2H12V47.6H12.8C13.36 47.6 13.6 47.2 13.6 46.08ZM39.5969 1.20001V57.2H27.5969V1.20001H39.5969ZM67.5906 12.8V45.52C67.5906 53.92 62.6306 58.4 54.7906 58.4C46.9506 58.4 41.9906 53.92 41.9906 45.52V12.8C41.9906 4.48001 46.9506 9.53674e-06 54.8706 9.53674e-06C62.7106 9.53674e-06 67.5906 4.40001 67.5906 12.8ZM55.5906 47.28V11.04C55.5906 10 55.3506 9.60001 54.7906 9.60001C54.2306 9.60001 53.9906 10 53.9906 11.04V47.28C53.9906 48.32 54.2306 48.8 54.7906 48.8C55.3506 48.8 55.5906 48.4 55.5906 47.28Z" fill="white"/>
</svg>
