<svg width="189" height="59" viewBox="0 0 189 59" fill="none" xmlns="http://www.w3.org/2000/svg">
<path d="M13.6 22.3999V11.0399C13.6 9.99995 13.36 9.59995 12.8 9.59995C12.24 9.59995 12 9.99995 12 11.0399V47.28C12 48.32 12.24 48.8 12.8 48.8C13.36 48.8 13.6 48.4 13.6 47.28V35.1199H25.6V45.52C25.6 54.32 20.32 58.4 12.8 58.4C5.36001 58.4 1.22637e-05 54.32 1.22637e-05 45.52V12.8C1.22637e-05 3.99995 5.36001 -5.14984e-05 12.8 -5.14984e-05C20.32 -5.14984e-05 25.6 3.99995 25.6 12.8V22.3999H13.6ZM53.5875 12.8V45.52C53.5875 53.92 48.6275 58.4 40.7875 58.4C32.9475 58.4 27.9875 53.92 27.9875 45.52V12.8C27.9875 4.47995 32.9475 -5.14984e-05 40.8675 -5.14984e-05C48.7075 -5.14984e-05 53.5875 4.39995 53.5875 12.8ZM41.5875 47.28V11.0399C41.5875 9.99995 41.3475 9.59995 40.7875 9.59995C40.2275 9.59995 39.9875 9.99995 39.9875 11.0399V47.28C39.9875 48.32 40.2275 48.8 40.7875 48.8C41.3475 48.8 41.5875 48.4 41.5875 47.28ZM83.975 1.19995V57.2H69.575L65.815 25.8399L64.935 20.0799L64.455 20.1599L64.935 25.9199L67.975 57.2H55.975V1.19995H70.375L73.975 30.7199L74.855 36.48L75.335 36.3999L74.855 30.56L71.975 1.19995H83.975ZM114.384 1.19995V57.2H99.9844L96.2244 25.8399L95.3444 20.0799L94.8644 20.1599L95.3444 25.9199L98.3844 57.2H86.3844V1.19995H100.784L104.384 30.7199L105.264 36.48L105.744 36.3999L105.264 30.56L102.384 1.19995H114.384ZM135.274 1.19995V10.7999H128.794V23.5999H134.794V33.2H128.794V47.6H135.994V57.2H116.794V1.19995H135.274ZM151.584 22.3999V11.0399C151.584 9.99995 151.344 9.59995 150.784 9.59995C150.224 9.59995 149.984 9.99995 149.984 11.0399V47.28C149.984 48.32 150.224 48.8 150.784 48.8C151.344 48.8 151.584 48.4 151.584 47.28V35.1199H163.584V45.52C163.584 54.32 158.304 58.4 150.784 58.4C143.344 58.4 137.984 54.32 137.984 45.52V12.8C137.984 3.99995 143.344 -5.14984e-05 150.784 -5.14984e-05C158.304 -5.14984e-05 163.584 3.99995 163.584 12.8V22.3999H151.584ZM188.391 1.19995V10.7999H182.791V57.2H170.791V10.7999H165.191V1.19995H188.391Z" fill="white"/>
</svg>
