<svg width="572" height="88" viewBox="0 0 572 88" fill="none" xmlns="http://www.w3.org/2000/svg">
<path d="M18.86 34.04V18.86C18.86 13.11 17.135 10.465 13.455 10.465C9.66001 10.465 7.93501 13.11 7.93501 18.86V73.025C7.93501 78.89 9.66001 81.535 13.455 81.535C17.135 81.535 18.86 78.89 18.86 73.025V56.695H26.795V71.99C26.795 82.8 21.85 87.975 13.455 87.975C5.06001 87.975 9.82732e-06 82.8 9.82732e-06 71.99V19.78C9.82732e-06 9.085 4.94501 4.025 13.455 4.025C21.85 4.025 26.795 9.085 26.795 19.78V34.04H18.86ZM59.473 86.25H51.883V37.375C51.883 31.51 50.388 28.865 47.398 28.865C43.948 28.865 41.533 32.315 41.533 39.56V86.25H33.943V-6.85453e-06H41.533V30.015H41.878C43.603 25.07 46.593 22.425 50.503 22.425C56.023 22.425 59.473 27.715 59.473 38.295V86.25ZM77.4741 81.42C81.2691 81.42 83.9141 76.59 83.9141 67.16V62.33C83.9141 57.27 81.3841 53.935 77.8191 53.935C74.8291 53.935 73.3341 56.465 73.3341 62.33V72.91C73.3341 78.89 74.7141 81.42 77.4741 81.42ZM91.5041 86.25H85.1791L84.6041 76.705H84.2591C82.6491 83.375 78.9691 87.975 74.1391 87.975C68.9641 87.975 65.7441 82.57 65.7441 71.99V63.25C65.7441 52.785 68.9641 47.495 74.7141 47.495C78.9691 47.495 82.1891 50.485 83.5691 55.545H83.9141V37.375C83.9141 31.395 82.4191 28.865 78.7391 28.865C75.1741 28.865 73.6791 31.28 73.6791 37.26V43.01H66.0891V38.18C66.0891 27.715 70.4591 22.425 78.7391 22.425C87.0191 22.425 91.5041 27.6 91.5041 38.18V86.25ZM98.2352 86.25V-6.85453e-06H105.825V86.25H98.2352ZM112.974 86.135V24.035H120.564V86.135H112.974ZM112.974 20.355V8.50999H120.564V20.355H112.974ZM145.193 47.265V37.375C145.193 31.395 143.698 28.865 140.133 28.865C136.453 28.865 134.958 31.395 134.958 37.375V72.91C134.958 78.89 136.453 81.535 140.133 81.535C143.698 81.535 145.193 79.005 145.193 72.91V61.87H152.783V71.99C152.783 82.685 148.298 87.975 140.133 87.975C131.853 87.975 127.368 82.685 127.368 71.99V38.295C127.368 27.6 131.853 22.425 140.133 22.425C148.413 22.425 152.783 27.715 152.783 38.295V47.265H145.193ZM171.83 81.535C175.395 81.535 176.89 79.005 176.89 72.91V63.02H184.48V71.99C184.48 82.685 179.995 87.975 171.83 87.975C163.55 87.975 159.065 82.685 159.065 71.99V38.18C159.065 27.6 163.55 22.31 171.83 22.31C180.11 22.31 184.48 27.6 184.48 38.18V56.35H166.655V72.91C166.655 78.89 168.15 81.535 171.83 81.535ZM176.89 50.715V37.26C176.89 31.28 175.395 28.865 171.83 28.865C168.15 28.865 166.655 31.395 166.655 37.26V50.715H176.89ZM209.784 5.74999H217.719V79.81H228.299V86.25H209.784V5.74999ZM245.583 81.535C249.148 81.535 250.643 79.005 250.643 72.91V63.02H258.233V71.99C258.233 82.685 253.748 87.975 245.583 87.975C237.303 87.975 232.818 82.685 232.818 71.99V38.18C232.818 27.6 237.303 22.31 245.583 22.31C253.863 22.31 258.233 27.6 258.233 38.18V56.35H240.408V72.91C240.408 78.89 241.903 81.535 245.583 81.535ZM250.643 50.715V37.26C250.643 31.28 249.148 28.865 245.583 28.865C241.903 28.865 240.408 31.395 240.408 37.26V50.715H250.643ZM276.132 81.42C279.927 81.42 282.572 76.59 282.572 67.16V62.33C282.572 57.27 280.042 53.935 276.477 53.935C273.487 53.935 271.992 56.465 271.992 62.33V72.91C271.992 78.89 273.372 81.42 276.132 81.42ZM290.162 86.25H283.837L283.262 76.705H282.917C281.307 83.375 277.627 87.975 272.797 87.975C267.622 87.975 264.402 82.57 264.402 71.99V63.25C264.402 52.785 267.622 47.495 273.372 47.495C277.627 47.495 280.847 50.485 282.227 55.545H282.572V37.375C282.572 31.395 281.077 28.865 277.397 28.865C273.832 28.865 272.337 31.28 272.337 37.26V43.01H264.747V38.18C264.747 27.715 269.117 22.425 277.397 22.425C285.677 22.425 290.162 27.6 290.162 38.18V86.25ZM322.423 86.25H314.833V37.375C314.833 31.51 313.338 28.865 310.348 28.865C306.898 28.865 304.483 32.315 304.483 39.56V86.25H296.893V24.15H303.218L303.908 30.935H304.253C305.863 25.415 309.198 22.425 313.453 22.425C318.973 22.425 322.423 27.715 322.423 38.295V86.25ZM341.331 81.535C344.666 81.535 347.081 78.085 347.081 70.84V39.445C347.081 32.315 344.551 28.865 341.216 28.865C338.341 28.865 336.846 31.395 336.846 37.26V73.025C336.846 78.89 338.341 81.535 341.331 81.535ZM329.256 71.99V38.18C329.256 27.715 332.361 22.425 338.111 22.425C342.136 22.425 345.241 25.3 346.736 30.82H347.081V-6.85453e-06H354.671V86.25H348.346L347.656 79.465H347.311C345.701 84.985 342.366 87.975 338.226 87.975C332.706 87.975 329.256 82.57 329.256 71.99ZM361.747 24.035H368.532L368.877 34.04H369.107C369.567 24.265 375.317 24.035 380.147 24.035V31.855C371.637 31.855 369.337 36.685 369.337 43.24V86.135H361.747V24.035ZM395.62 81.42C399.415 81.42 402.06 76.59 402.06 67.16V62.33C402.06 57.27 399.53 53.935 395.965 53.935C392.975 53.935 391.48 56.465 391.48 62.33V72.91C391.48 78.89 392.86 81.42 395.62 81.42ZM409.65 86.25H403.325L402.75 76.705H402.405C400.795 83.375 397.115 87.975 392.285 87.975C387.11 87.975 383.89 82.57 383.89 71.99V63.25C383.89 52.785 387.11 47.495 392.86 47.495C397.115 47.495 400.335 50.485 401.715 55.545H402.06V37.375C402.06 31.395 400.565 28.865 396.885 28.865C393.32 28.865 391.825 31.28 391.825 37.26V43.01H384.235V38.18C384.235 27.715 388.605 22.425 396.885 22.425C405.165 22.425 409.65 27.6 409.65 38.18V86.25ZM453.806 71.3V20.585C453.806 14.72 451.621 12.19 446.906 12.19H442.881V79.81H446.906C451.621 79.81 453.806 77.165 453.806 71.3ZM461.741 21.505V70.265C461.741 81.075 456.336 86.25 447.021 86.25H434.946V5.74999H446.906C456.336 5.74999 461.741 10.81 461.741 21.505ZM480.041 81.42C483.836 81.42 486.481 76.59 486.481 67.16V62.33C486.481 57.27 483.951 53.935 480.386 53.935C477.396 53.935 475.901 56.465 475.901 62.33V72.91C475.901 78.89 477.281 81.42 480.041 81.42ZM494.071 86.25H487.746L487.171 76.705H486.826C485.216 83.375 481.536 87.975 476.706 87.975C471.531 87.975 468.311 82.57 468.311 71.99V63.25C468.311 52.785 471.531 47.495 477.281 47.495C481.536 47.495 484.756 50.485 486.136 55.545H486.481V37.375C486.481 31.395 484.986 28.865 481.306 28.865C477.741 28.865 476.246 31.28 476.246 37.26V43.01H468.656V38.18C468.656 27.715 473.026 22.425 481.306 22.425C489.586 22.425 494.071 27.6 494.071 38.18V86.25ZM516.689 86.25H507.604L498.404 24.15H506.339L511.399 67.16L511.974 74.175H512.319L512.779 67.16L517.954 24.15H525.889L516.689 86.25ZM531.264 86.135V24.035H538.854V86.135H531.264ZM531.264 20.355V8.50999H538.854V20.355H531.264ZM570.728 42.09H563.138V34.27C563.138 29.325 561.068 27.83 558.423 27.83C555.778 27.83 553.593 29.44 553.593 34.385V39.33C553.593 43.815 557.273 48.07 560.953 51.635C565.898 56.35 571.073 61.64 571.073 69.46V74.75C571.073 83.26 565.783 87.975 558.423 87.975C550.948 87.975 545.658 83.26 545.658 74.635V65.895H553.248V76.015C553.248 80.96 555.433 82.57 558.423 82.57C561.298 82.57 563.483 80.96 563.483 76.015V69.23C563.483 64.63 558.883 59.685 554.628 55.43C550.143 50.945 546.003 45.885 546.003 39.1V35.65C546.003 27.14 550.948 22.425 558.423 22.425C565.783 22.425 570.728 27.14 570.728 35.65V42.09Z" fill="white"/>
</svg>
