<svg width="138" height="59" viewBox="0 0 138 59" fill="none" xmlns="http://www.w3.org/2000/svg">
<path d="M1.22637e-05 1.19995H12V47.6H18.4V57.2H1.22637e-05V1.19995ZM32.8 1.19995V57.2H20.8V1.19995H32.8ZM60.7938 19.1999H48.7938V11.0399C48.7938 9.99995 48.6338 9.59995 48.0738 9.59995C47.4338 9.59995 47.1938 9.99995 47.1938 11.0399V15.9999C47.1938 19.12 49.7538 21.7599 52.6338 24.64C56.3938 28.3199 60.7938 32.64 60.7938 40V45.52C60.7938 53.92 55.8338 58.4 47.9938 58.4C40.1538 58.4 35.1938 53.92 35.1938 45.52V37.52H47.1938V47.28C47.1938 48.4 47.4338 48.8 47.9938 48.8C48.5538 48.8 48.7938 48.4 48.7938 47.28V40.7199C48.7938 37.44 45.5138 34.1599 42.1538 30.8799C38.7138 27.44 35.1938 23.4399 35.1938 16.88V12.8C35.1938 4.39995 40.1538 -5.14984e-05 47.9938 -5.14984e-05C55.9138 -5.14984e-05 60.7938 4.47995 60.7938 12.8V19.1999ZM85.6 1.19995V10.7999H80V57.2H68V10.7999H62.4V1.19995H85.6ZM106.446 1.19995V10.7999H99.9656V23.5999H105.966V33.2H99.9656V47.6H107.166V57.2H87.9656V1.19995H106.446ZM137.156 1.19995V57.2H122.756L118.996 25.8399L118.116 20.0799L117.636 20.1599L118.116 25.9199L121.156 57.2H109.156V1.19995H123.556L127.156 30.7199L128.036 36.48L128.516 36.3999L128.036 30.56L125.156 1.19995H137.156Z" fill="white"/>
</svg>
